<?xml version="1.0" encoding="UTF-8"?>
<svg version="1.1" xmlns="http://www.w3.org/2000/svg" width="1120" height="1044">
<path d="M0 0 C0.53206055 0.42071777 1.06412109 0.84143555 1.61230469 1.27490234 C39.10629078 31.16450599 62.38561506 72.49866618 68.5625 120.04296875 C69.24981218 126.59260862 69.24414357 133.17054621 69.25 139.75 C69.25101212 140.77595276 69.25101212 140.77595276 69.25204468 141.82263184 C69.17943575 188.39277393 51.24002409 230.57098211 19 264 C18.09161927 264.98230728 17.18407456 265.96538829 16.27734375 266.94921875 C3.99795473 280.0222756 -11.10496265 289.85962966 -27 298 C-27.61407715 298.31662598 -28.2281543 298.63325195 -28.86083984 298.95947266 C-45.90166183 307.62698238 -64.47867906 313.3575566 -83.4921875 315.54296875 C-86.8168331 315.61355845 -86.8168331 315.61355845 -88 317 C-86.98164062 317.268125 -85.96328125 317.53625 -84.9140625 317.8125 C-59.17612461 324.83669048 -34.35055445 337.28235554 -16 357 C-15.21625 357.763125 -14.4325 358.52625 -13.625 359.3125 C14.07141361 387.66835203 25.67618111 422.38360221 25.28125 461.77734375 C25.03495984 471.16469305 23.49426054 479.96778455 21 489 C20.81808105 489.67272949 20.63616211 490.34545898 20.44873047 491.03857422 C14.38751126 512.75388059 2.0821098 531.53102953 -13 548 C-13.76183594 548.83402344 -14.52367187 549.66804687 -15.30859375 550.52734375 C-43.59375559 580.0580907 -85.52000297 594.2074325 -125.6651001 595.21270752 C-132.86895554 595.33721678 -140.07306625 595.37724439 -147.27780199 595.40471697 C-150.90126016 595.42056857 -154.52463969 595.44728577 -158.14804077 595.4727478 C-164.97915129 595.51915222 -171.81027727 595.55607911 -178.64146268 595.58942068 C-186.43138205 595.62791661 -194.22122168 595.67725269 -202.01107335 595.72740483 C-218.00732424 595.83015295 -234.00362023 595.91959513 -250 596 C-250.13399704 597.17099243 -250.26799408 598.34198486 -250.40605164 599.54846191 C-250.58531247 601.09807309 -250.76466397 602.64767378 -250.9440918 604.19726562 C-251.03198723 604.96750061 -251.11988266 605.7377356 -251.21044159 606.53131104 C-252.5027464 617.647479 -254.55991653 628.62307065 -261 638 C-261.556875 638.86625 -262.11375 639.7325 -262.6875 640.625 C-271.1200987 649.28550677 -281.71643274 654.47304924 -293.7890625 655.09375 C-307.2285923 654.70135497 -318.04065934 649.9331771 -327.24609375 640.20703125 C-333.49316119 632.34602212 -336.28317056 623.14973348 -336.3125 613.1875 C-336.32925781 611.88167969 -336.34601562 610.57585938 -336.36328125 609.23046875 C-336 605 -336 605 -333 595 C-367.98 595 -402.96 595 -439 595 C-439 597.64 -439 600.28 -439 603 C-440.17525188 613.70702988 -442.82514286 624.07716979 -449 633 C-449.38929688 633.5878125 -449.77859375 634.175625 -450.1796875 634.78125 C-456.05920988 642.72874231 -466.32568641 647.64471518 -475.80859375 649.5703125 C-487.27390318 651.00157291 -498.05502802 648.66903912 -507.53125 642.0078125 C-515.73988704 635.33180073 -522.11706818 626.63759421 -524 616 C-524.09412604 613.52227044 -524.12991479 611.04201191 -524.125 608.5625 C-524.12757813 607.26441406 -524.13015625 605.96632813 -524.1328125 604.62890625 C-524 601 -524 601 -523 596 C-556.99 595.67 -590.98 595.34 -626 595 C-626.66 600.28 -627.32 605.56 -628 611 C-630.73130317 624.793081 -635.98988495 635.77942681 -647.875 643.75 C-657.74453037 649.49777248 -668.4916372 651.17426704 -679.6875 648.875 C-690.37763195 646.05239646 -699.34490036 640.59927534 -705.25 631.125 C-710.93773961 621.02357446 -713.6650595 610.71774529 -710.98828125 599.23828125 C-710.71238159 598.04199097 -710.71238159 598.04199097 -710.4309082 596.8215332 C-710.2887085 596.22042725 -710.14650879 595.61932129 -710 595 C-710.57218262 594.98541748 -711.14436523 594.97083496 -711.73388672 594.95581055 C-760.64764862 593.57403828 -803.90032422 576.30304666 -838.25 541.0546875 C-866.09226087 510.78525547 -877.40529267 472.50653051 -876.15234375 431.97363281 C-874.24661567 394.77528667 -854.77923543 359.83651127 -827.71875 334.93359375 C-806.3989931 315.86633003 -773.4979697 295 -744 295 C-744.15855469 293.98679687 -744.31710937 292.97359375 -744.48046875 291.9296875 C-750.75326741 241.10107744 -733.9625971 189.16184346 -703 149 C-670.16039679 107.59034343 -622.07000174 80.01002643 -569.546875 73.25 C-535.55237366 69.39045751 -501.99347361 73.93304905 -470 86 C-469.30535645 86.25974609 -468.61071289 86.51949219 -467.89501953 86.78710938 C-459.08917265 90.15780993 -450.95237853 94.57166883 -442.8125 99.3125 C-441.93408447 99.82119629 -441.05566895 100.32989258 -440.15063477 100.85400391 C-439.28237061 101.37269043 -438.41410645 101.89137695 -437.51953125 102.42578125 C-436.60937256 102.96920166 -435.69921387 103.51262207 -434.76147461 104.07250977 C-432 106 -432 106 -429.47485352 108.61303711 C-420.07715307 117.84657124 -410.05256388 117.17060799 -397.37304688 117.08789062 C-395.36192715 117.05552963 -393.35104288 117.0166395 -391.34008789 116.9753418 C-386.64643563 116.88774203 -381.95221606 116.87133736 -377.25785828 116.85731506 C-374.77007024 116.84597267 -372.28227153 116.81600251 -369.79499817 116.7641449 C-360.61265412 116.66346851 -351.98322973 117.66600872 -344.53515625 123.4765625 C-339.56865586 128.40515067 -337.33378914 133.77337169 -336.625 140.625 C-336.73776801 146.11987761 -338.82376937 150.5799308 -342 155 C-351.44633099 163.71547366 -362.74803195 164.53187474 -375 165 C-372.69 168.63 -370.38 172.26 -368 176 C-366.78828125 175.55269531 -365.5765625 175.10539063 -364.328125 174.64453125 C-355.49948588 171.43840211 -346.67822495 168.4717455 -337.5625 166.1875 C-336.79647461 165.99325439 -336.03044922 165.79900879 -335.24121094 165.59887695 C-322.65125989 162.55563719 -310.56915346 161.72568833 -297.6875 161.875 C-296.15690698 161.88506222 -294.62630746 161.89418227 -293.09570312 161.90234375 C-289.3969973 161.92407212 -285.69854231 161.95841819 -282 162 C-282.33 161.34 -282.66 160.68 -283 160 C-286.32514489 126.6813765 -280.98936114 93.0142421 -266 63 C-265.12214844 61.22689453 -265.12214844 61.22689453 -264.2265625 59.41796875 C-243.45091008 18.45531639 -207.23209861 -11.9462876 -164 -27 C-163.27361328 -27.25362305 -162.54722656 -27.50724609 -161.79882812 -27.76855469 C-108.28360636 -45.97552408 -44.19987487 -35.17157963 0 0 Z " fill="#C5DFF6" transform="translate(878,211)"/>
<path d="M0 0 C0.53206055 0.42071777 1.06412109 0.84143555 1.61230469 1.27490234 C39.10629078 31.16450599 62.38561506 72.49866618 68.5625 120.04296875 C69.24981218 126.59260862 69.24414357 133.17054621 69.25 139.75 C69.25067474 140.43396851 69.25134949 141.11793701 69.25204468 141.82263184 C69.17943575 188.39277393 51.24002409 230.57098211 19 264 C18.09161927 264.98230728 17.18407456 265.96538829 16.27734375 266.94921875 C3.99795473 280.0222756 -11.10496265 289.85962966 -27 298 C-27.61407715 298.31662598 -28.2281543 298.63325195 -28.86083984 298.95947266 C-48.93255147 309.16859026 -72.04490432 316.17154182 -94.6875 316.125 C-95.94949219 316.12757813 -97.21148438 316.13015625 -98.51171875 316.1328125 C-101.52377094 316.0181319 -104.06398836 315.58982377 -107 315 C-110.10040805 314.73691293 -113.20480318 314.58712076 -116.3125 314.4375 C-117.14845703 314.39431641 -117.98441406 314.35113281 -118.84570312 314.30664062 C-120.89696935 314.20114693 -122.9484648 314.10012685 -125 314 C-125.20302734 312.55947266 -125.20302734 312.55947266 -125.41015625 311.08984375 C-132.12944878 266.99791192 -155.13016114 225.65631321 -190.76953125 198.36181641 C-193.78676724 196.14732399 -196.86591888 194.04516316 -200 192 C-200.60521484 191.60377441 -201.21042969 191.20754883 -201.83398438 190.79931641 C-226.30585202 175.00702987 -253.21147082 166.51756948 -282 163 C-292.00576 132.98272 -279.56633194 90.16481158 -266 63 C-265.41476562 61.81792969 -264.82953125 60.63585937 -264.2265625 59.41796875 C-243.45091008 18.45531639 -207.23209861 -11.9462876 -164 -27 C-163.27361328 -27.25362305 -162.54722656 -27.50724609 -161.79882812 -27.76855469 C-108.28360636 -45.97552408 -44.19987487 -35.17157963 0 0 Z " fill="#FECC00" transform="translate(878,211)"/>
<path d="M0 0 C19.956295 78.63350411 19.956295 78.63350411 11 116 C10.79503906 116.96035156 10.59007812 117.92070313 10.37890625 118.91015625 C7.86965382 128.99392222 1.6658597 138.2227602 -7 144 C-18.34807459 150.05230645 -30.66131518 152.25818136 -43.3125 148.9375 C-54.78779706 144.78398339 -62.53857053 137.59958585 -68.3125 127 C-74.87002595 112.75919257 -71.65616853 98.89678995 -66.4921875 84.78515625 C-54.49366488 53.47595232 -30.34252653 28.50397203 -7.1875 5 C-6.44125366 4.23417603 -6.44125366 4.23417603 -5.67993164 3.45288086 C-2.23553899 0 -2.23553899 0 0 0 Z " fill="#3880BE" transform="translate(332,881)"/>
<path d="M0 0 C1.32 0.33 2.64 0.66 4 1 C5.37816623 6.50725275 6.74687222 12.01674922 8.10766602 17.52832031 C8.56972714 19.3944903 9.03416153 21.26007463 9.5012207 23.125 C17.559864 55.32487504 26.11791886 97.43416495 9.65625 128.5390625 C2.67495009 139.64230012 -6.22521794 145.91502604 -19 149 C-32.7657494 150.21795725 -44.08406137 147.91054839 -55 139 C-62.4636859 132.153272 -67.43990502 122.81715602 -68.2734375 112.671875 C-68.67309748 97.23885097 -63.91597759 84.70685998 -57 71 C-56.35998047 69.68708984 -56.35998047 69.68708984 -55.70703125 68.34765625 C-48.5085661 54.30959371 -38.45879421 41.73462959 -28 30 C-27.15179688 29.0409375 -26.30359375 28.081875 -25.4296875 27.09375 C-19.25873089 20.24122505 -12.79311209 13.7181017 -6.21801758 7.25463867 C-5.55568115 6.60084229 -4.89334473 5.9470459 -4.2109375 5.2734375 C-3.31834229 4.39824463 -3.31834229 4.39824463 -2.40771484 3.50537109 C-0.89907337 2.03503432 -0.89907337 2.03503432 0 0 Z " fill="#3880BE" transform="translate(516,882)"/>
<path d="M0 0 C2.55102426 2.55102426 2.86856333 4.53842978 3.8046875 8.01953125 C4.30621338 9.87928589 4.30621338 9.87928589 4.81787109 11.77661133 C5.17114281 13.1216727 5.52349987 14.46697458 5.875 15.8125 C6.1429538 16.82816544 6.1429538 16.82816544 6.4163208 17.86434937 C9.47508923 29.48845997 12.11655303 41.12453328 14 53 C14.11569336 53.68642578 14.23138672 54.37285156 14.35058594 55.08007812 C18.41424305 79.75142074 19.92275273 112.60814618 4.6875 133.9375 C-2.24688613 142.41286083 -11.51823039 148.01489978 -22.37109375 149.78125 C-34.20816318 150.76620674 -45.26278879 147.62989329 -54.93359375 140.76171875 C-65.02024645 132.16232297 -69.27335223 121.01043229 -70.3125 108.125 C-69.27156324 77.44798144 -44.43763897 47.14111964 -24.71484375 25.93359375 C-22.31447494 23.33981393 -19.96445348 20.71101889 -17.625 18.0625 C-12.00749929 11.79013582 -5.99324461 5.90987645 0 0 Z " fill="#3981BF" transform="translate(236,711)"/>
<path d="M0 0 C0.66 0 1.32 0 2 0 C27.12175309 94.52239041 27.12175309 94.52239041 8.5 129.1875 C7.69041725 130.47359392 6.86035417 131.74730191 6 133 C5.443125 133.86625 4.88625 134.7325 4.3125 135.625 C-4.1200987 144.28550677 -14.71643274 149.47304924 -26.7890625 150.09375 C-40.2285923 149.70135497 -51.04065934 144.9331771 -60.24609375 135.20703125 C-67.84156085 125.64926085 -70.12133399 114.1846531 -69.26806641 102.21777344 C-66.04273791 75.5339082 -46.2213464 50.47902291 -29 31 C-28.29875 30.18789063 -27.5975 29.37578125 -26.875 28.5390625 C-21.39134462 22.28686451 -15.51239991 16.4458336 -9.58325195 10.61987305 C-6.7631836 7.83613076 -4.10540248 5.13336997 -1.64453125 2.01953125 C-0.83048828 1.01986328 -0.83048828 1.01986328 0 0 Z " fill="#3981BF" transform="translate(611,716)"/>
<path d="M0 0 C0.66 0 1.32 0 2 0 C11.12547205 33.54574938 11.12547205 33.54574938 13.5 45.4375 C13.72091309 46.53046387 13.72091309 46.53046387 13.94628906 47.64550781 C18.61417592 72.3153472 21.16134285 108.80988764 7.4921875 130.84375 C6.99976563 131.5553125 6.50734375 132.266875 6 133 C5.61070312 133.5878125 5.22140625 134.175625 4.8203125 134.78125 C-1.05920988 142.72874231 -11.32568641 147.64471518 -20.80859375 149.5703125 C-32.27390318 151.00157291 -43.05502802 148.66903912 -52.53125 142.0078125 C-60.78591712 135.29436487 -67.0262656 126.65816574 -69 116 C-71.16529392 86.78628043 -52.53231676 58.76326545 -34.50341797 37.2109375 C-32.51450221 34.92905888 -30.46626576 32.71144544 -28.37890625 30.51953125 C-26.45431249 28.4811684 -24.62509605 26.4112374 -22.80078125 24.28515625 C-18.63652888 19.49982546 -14.14493809 15.07168139 -9.625 10.625 C-8.01074338 9.03616475 -6.39864674 7.44513097 -4.7890625 5.8515625 C-4.08475098 5.15885254 -3.38043945 4.46614258 -2.65478516 3.75244141 C-0.92378526 2.08833587 -0.92378526 2.08833587 0 0 Z " fill="#3981BF" transform="translate(423,711)"/>
<path d="M0 0 C2.47338867 1.97875977 2.47338867 1.97875977 5.10546875 4.44140625 C5.60615372 4.90940643 6.10683868 5.37740662 6.62269592 5.85958862 C14.31000375 13.10278817 21.80813498 20.54715377 29.29321289 27.99804688 C31.0641744 29.75739928 32.83961653 31.51225234 34.61938477 33.26269531 C37.22361002 35.82419705 39.81427713 38.39874736 42.40234375 40.9765625 C43.19197006 41.74868073 43.98159637 42.52079895 44.79515076 43.3163147 C52.24578311 50.79633541 57.04845748 58.02153554 57.3125 68.75 C57.2372365 74.37423586 56.56512407 78.55349804 53 83 C46.87044905 88.74017374 41.9408668 90.34078011 33.6484375 90.20703125 C20.47248512 89.17705267 11.72539358 79.0353412 2.890625 70.19140625 C1.96078796 69.26585434 1.03095093 68.34030243 0.07293701 67.38670349 C-1.88006475 65.44110105 -3.82922961 63.49175238 -5.77587891 61.53979492 C-8.2540758 59.05578761 -10.7435 56.58337895 -13.2361412 54.1138773 C-15.63836926 51.73002231 -18.02945997 49.33510921 -20.421875 46.94140625 C-21.30840759 46.0640834 -22.19494019 45.18676056 -23.1083374 44.28285217 C-30.90720805 36.42555753 -36.75973885 29.07679622 -37.375 17.625 C-37.20359211 11.70638629 -35.33840761 6.59330512 -31.3515625 2.171875 C-21.97665357 -6.26144919 -10.8643436 -5.76208615 0 0 Z " fill="#FECB00" transform="translate(557,105)"/>
<path d="M0 0 C7.2783199 4.24444117 11.40043686 10.52136571 13.75 18.5 C14.13768005 22.28672791 14.13768005 22.28672791 14.15405273 26.24194336 C14.16091599 26.9699263 14.16777924 27.69790924 14.17485046 28.44795227 C14.19299147 30.82878725 14.18929949 33.20895522 14.18359375 35.58984375 C14.18816163 37.26079011 14.193469 38.93173459 14.19947815 40.60267639 C14.20838429 44.09514017 14.20601471 47.58737498 14.19604492 51.07983398 C14.18455781 55.53612371 14.20477513 59.99162069 14.23396206 64.44780636 C14.25238458 67.89584805 14.25201962 71.34370187 14.24632454 74.79178047 C14.24617207 76.43388544 14.25215467 78.07600375 14.26461601 79.71806145 C14.33816899 90.99770064 13.55017161 100.31800939 5.58203125 108.9921875 C1.09227795 112.68737892 -4.18248036 114.25047177 -9.875 114.9375 C-18.01809844 113.88191317 -22.27622243 111.2257515 -27.5546875 104.83984375 C-32.44127739 98.09544895 -33.36232382 91.02461177 -33.41113281 82.82714844 C-33.42074036 81.51848816 -33.4303479 80.20982788 -33.44024658 78.86151123 C-33.44509594 77.44413428 -33.44937443 76.02675528 -33.453125 74.609375 C-33.45595238 73.88817726 -33.45877975 73.16697952 -33.46169281 72.42392731 C-33.47663937 68.60634501 -33.48589711 64.78880005 -33.49023438 60.97119141 C-33.4957086 57.05317026 -33.51972722 53.13549844 -33.54820633 49.21758652 C-33.56694622 46.18215984 -33.57204433 43.14681537 -33.57357025 40.11133575 C-33.57657238 38.66821638 -33.58451709 37.2250976 -33.59775543 35.78203583 C-33.69387224 24.49843347 -32.92865382 13.46623296 -25.25 4.5 C-24.26 4.17 -23.27 3.84 -22.25 3.5 C-22.25 2.84 -22.25 2.18 -22.25 1.5 C-15.2271949 -2.24549605 -7.47840845 -3.26726583 0 0 Z " fill="#FECB00" transform="translate(780.25,7.5)"/>
<path d="M0 0 C1.55455594 -0.00015538 3.10911227 -0.00165073 4.66366577 -0.00440979 C7.90290705 -0.00578554 11.1417011 0.00662726 14.38085938 0.02954102 C18.51078002 0.05797122 22.63996177 0.05516442 26.76993752 0.0424509 C29.97350259 0.03546305 33.17689993 0.04331745 36.38044357 0.05570793 C37.90251393 0.06018897 39.42460251 0.06058888 40.94667435 0.05664253 C52.23692233 0.04106148 62.73466298 0.86919383 71.7109375 8.49609375 C76.51421981 14.47933871 78.22323749 19.8115939 77.7109375 27.49609375 C75.72084269 35.73853369 70.9196292 39.9185449 63.96875 44.3828125 C58.64058404 47.01002236 53.45756729 47.74962598 47.57324219 47.78662109 C46.89738571 47.79333832 46.22152924 47.80005554 45.52519226 47.80697632 C43.31098896 47.82583143 41.09709089 47.82987437 38.8828125 47.83203125 C37.32733033 47.83846883 35.77184934 47.84519788 34.21636963 47.85220337 C30.96176348 47.86414566 27.70726321 47.86788745 24.45263672 47.86669922 C20.3092902 47.86649643 16.16663262 47.89377054 12.02344894 47.92824364 C8.81124842 47.9506297 5.5992105 47.95453317 2.38694 47.95347977 C0.86090985 47.95581923 -0.66512594 47.96454803 -2.19107819 47.9801445 C-14.19527701 48.09133562 -24.71802179 47.0372869 -33.6953125 38.3359375 C-38.1744154 33.16520842 -38.84999434 27.81297898 -38.6328125 21.20703125 C-37.89793403 15.41151242 -35.39833082 11.26743773 -31.2265625 7.24609375 C-21.80668707 0.1387907 -11.33864995 -0.09324955 0 0 Z " fill="#FECB00" transform="translate(1039.2890625,327.50390625)"/>
<path d="M0 0 C7.10716958 5.73550163 13.54333913 12.36107419 20.0234375 18.78515625 C20.93203522 19.68568222 21.84063293 20.58620819 22.77676392 21.51402283 C24.67898017 23.40251689 26.57982044 25.29230355 28.47900391 27.18383789 C30.89789311 29.59158344 33.32826832 31.98739215 35.76123619 34.38089848 C38.10730952 36.6944322 40.43933556 39.02205487 42.7734375 41.34765625 C43.64012054 42.19683121 44.50680359 43.04600616 45.39974976 43.9209137 C52.52551944 51.07247469 57.08111752 57.79964432 57.3125 68.1875 C57.24123252 74.01847562 56.75393051 78.41186271 53 83 C46.92909837 88.67280972 41.94742925 90.39444749 33.71875 90.2734375 C20.79960758 88.97409846 12.49435187 78.64796505 3.86328125 69.9609375 C3.02081345 69.11705475 2.17834564 68.273172 1.31034851 67.40371704 C-1.35797903 64.72983728 -4.02279732 62.05249171 -6.6875 59.375 C-8.48739721 57.57008012 -10.28752532 55.76539046 -12.08789062 53.9609375 C-16.09451338 49.94443379 -20.0998015 45.92661463 -24.10012817 41.90383911 C-25.70841291 40.29219598 -27.32737469 38.69242246 -28.94946289 37.09472656 C-34.44138416 31.48445338 -36.76959041 24.33229721 -37.12890625 16.6015625 C-36.80822688 10.1296697 -34.09415232 5.18102264 -29.72265625 0.4765625 C-21.21453322 -6.81611438 -9.11898338 -5.12142782 0 0 Z " fill="#FECB00" transform="translate(964,512)"/>
<path d="M0 0 C4.21410174 2.99619645 6.56362726 6.64791303 8.203125 11.56640625 C8.96568999 20.59217543 8.51992097 28.08789845 2.78636169 35.36444092 C-2.22798405 41.0432984 -7.48996967 46.45405955 -12.82421875 51.83203125 C-13.29324678 52.30513481 -13.76227482 52.77823837 -14.24551582 53.26567841 C-16.72220318 55.76304045 -19.20202062 58.25724625 -21.68432617 60.74902344 C-24.22890332 63.30471139 -26.76156703 65.87188221 -29.29184628 68.44171524 C-31.25926854 70.43538538 -33.23562412 72.42001975 -35.21441841 74.40239716 C-36.60331372 75.79845397 -37.98256609 77.20408333 -39.36155701 78.60992432 C-46.46175625 85.6859056 -53.21434492 90.61896937 -63.546875 90.81640625 C-69.54637953 90.71068811 -74.1772436 89.86052132 -78.77734375 85.83203125 C-83.31636291 81.00288922 -85.69852894 76.81495598 -85.85546875 70.03515625 C-85.28598924 56.95549777 -77.83500803 48.84988401 -68.90625 40.046875 C-67.83556141 38.97535554 -66.76569123 37.90301775 -65.69659424 36.82991028 C-63.46526775 34.59574256 -61.22551322 32.37050909 -58.97900391 30.15161133 C-56.1181712 27.32487857 -53.27786916 24.47851774 -50.4434166 21.62536144 C-48.24078525 19.41209909 -46.02841432 17.20878182 -43.81299591 15.00832558 C-42.76258128 13.96304713 -41.71491373 12.91499973 -40.67021942 11.86400414 C-29.06181332 0.21188988 -16.25938289 -8.97333867 0 0 Z " fill="#FECB00" transform="translate(1012.796875,104.43359375)"/>
<path d="M0 0 C7.38948959 -0.06988359 14.7789065 -0.12300413 22.16866112 -0.15543652 C25.60100453 -0.171012 29.03311984 -0.192099 32.46533203 -0.22631836 C36.42217158 -0.26551595 40.37892268 -0.2797763 44.3359375 -0.29296875 C45.55300385 -0.30845261 46.77007019 -0.32393646 48.02401733 -0.33988953 C57.85033936 -0.34180825 67.70482523 0.76051359 75 8 C79.25629964 13.54977252 81.47799141 18.60650935 81.33203125 25.71875 C80.52887205 31.23692616 78.07995859 36.08096663 73.98046875 39.86328125 C71.72144819 41.45765127 69.47038667 42.76071662 67 44 C66.34515625 44.33902344 65.6903125 44.67804688 65.015625 45.02734375 C58.07520878 47.94608468 48.25211479 49.43493706 41 47 C37.09934285 43.44733757 34.75899911 39.47925283 32.16699219 34.92822266 C30.31634328 31.87039315 28.08113656 29.20033434 25.75 26.5 C25.30325928 25.97704346 24.85651855 25.45408691 24.39624023 24.9152832 C17.69808196 17.20470823 10.49492574 9.62938256 2.58203125 3.15625 C1.72996094 2.4446875 0.87789063 1.733125 0 1 C0 0.67 0 0.34 0 0 Z " fill="#FECC00" transform="translate(460,328)"/>
</svg>
